<svg width="189" height="113" viewBox="0 0 189 113" fill="none" xmlns="http://www.w3.org/2000/svg">
<path d="M0 56.5C0 50.4635 0 47.4452 0.260393 44.9038C2.67663 21.3211 21.3211 2.67663 44.9038 0.260393C47.4452 0 50.4635 0 56.5 0H94.5C136.315 0 157.223 0 171.173 11.7258C173.379 13.58 175.42 15.6214 177.274 17.8272C189 31.7768 189 52.6845 189 94.5V113H56.5C50.4635 113 47.4452 113 44.9038 112.74C21.3211 110.323 2.67663 91.6789 0.260393 68.0962C0 65.5548 0 62.5365 0 56.5V56.5Z" fill="#4845D2"/>
<rect x="19" y="16" width="151" height="81" rx="40.5" fill="#A5B4FC"/>
<circle cx="56" cy="56" r="24" fill="black"/>
<circle cx="129" cy="56" r="24" fill="black"/>
<ellipse cx="46.5" cy="49" rx="5.5" ry="5" fill="white"/>
<ellipse cx="123.5" cy="49" rx="5.5" ry="5" fill="white"/>
</svg>
